<svg id="Layer_1" data-name="Layer 1" xmlns="http://www.w3.org/2000/svg" viewBox="0 0 750 750"><defs><style>.cls-1{fill:#8fb8cc;}.cls-2{fill:#1e2454;}.cls-3,.cls-5,.cls-7{fill:none;stroke-linecap:round;stroke-miterlimit:10;}.cls-3{stroke:#7f8ac9;}.cls-4{fill:#efce95;}.cls-5,.cls-7{stroke:#1e2454;}.cls-5{stroke-width:2px;}.cls-6{fill:#ffb89f;}.cls-8{fill:#2e376d;}.cls-9{fill:#fff;}</style></defs><path class="cls-1" d="M328.81,215.85c-5.75,9.28-21.64,58.14-26.18,72.28-.71,2.22-1.5,4.4-2.35,6.57-4.89,12.39-22.91,64.76,1.54,109.12l41.9-168.92V212.24S335.56,205,328.81,215.85Z"/><path class="cls-2" d="M393.21,310.47l-76.14,22.16s-56.85,127.64-12.39,315.5L281.38,672h73.88L358.6,486.4S419.88,349.67,393.21,310.47Z"/><path class="cls-2" d="M399.2,310.47l-62.15,22.16s-38.68,145.93,33,315.5l-26,23.91h81.82l-16-183.13a107.66,107.66,0,0,1,.21-21C414.48,427.17,423.77,343.28,399.2,310.47Z"/><line class="cls-3" x1="370.09" y1="648.13" x2="344.05" y2="672.04"/><path class="cls-3" d="M331.72,508.15a549.25,549.25,0,0,0,38.37,140"/><path class="cls-2" d="M346.41,172.08c-.44,4.67-4.32,8.12-8.67,7.7s-7.13-8.4-6.69-13.07,4-4.23,8.3-3.82S346.85,167.42,346.41,172.08Z"/><path class="cls-2" d="M378.83,157c-6-9.49-16.66-14.08-26.31-12.28a10.36,10.36,0,0,1-7.9-1.71,12.71,12.71,0,0,0-6.15-2.29c-7.56-.72-14.32,5.37-15.1,13.6-.73,7.76,4.12,14.65,11,16a27.9,27.9,0,0,0,4.27,12.24c7.73,12.15,23,16.28,34.09,9.22S386.56,169.15,378.83,157Z"/><path class="cls-4" d="M349.16,157.59c-15.78-1-14.41,13.09-14.41,13.09h0a54.57,54.57,0,0,1-.47,13.69c-1.65,9.28,1.34,15.78,9.26,18.16,9.66,2.89,19.08-.72,22.73-11.23.42-1.21.84-2.42,1.32-3.62C370.1,181.33,376.73,159.4,349.16,157.59Z"/><path class="cls-2" d="M376.16,169.08c-6.39-13.53-42.31-19.14-42.31-19.14l.53,20.38s17.79.92,25.81-5.18a.91.91,0,0,1,1.48.54c.5,2.76,1.83,8.39,4.73,11.77a1.35,1.35,0,0,1,.2,1.39l-1.51,3.64a1.19,1.19,0,0,0,1.35,1.61l3.52-.76S382.55,182.62,376.16,169.08Z"/><path class="cls-5" d="M352.76,171.08a7.82,7.82,0,0,1,6,.7"/><path class="cls-2" d="M346,173.32a7.42,7.42,0,0,1,.75,4.52,12.15,12.15,0,0,1-.72,2.21,17.87,17.87,0,0,1-1,2.09,5.43,5.43,0,0,1-.66,1,2.69,2.69,0,0,0-.52.78c-.17.48.14,1,.61,1.45a3.75,3.75,0,0,0,1.68,1,2.66,2.66,0,0,0,2-.19.05.05,0,0,1,.07,0,0,0,0,0,1,0,0,2.57,2.57,0,0,1-2.21.89,3.8,3.8,0,0,1-2.3-1A3,3,0,0,1,343,185a1.94,1.94,0,0,1,0-1.46,3.08,3.08,0,0,1,.83-1,7.76,7.76,0,0,0,.79-.73,4.84,4.84,0,0,0,1.11-1.88,7.67,7.67,0,0,0,.19-2.18c.06-1.45,0-2.89,0-4.41a.06.06,0,0,1,.05-.06A.05.05,0,0,1,346,173.32Z"/><ellipse class="cls-2" cx="340.52" cy="178.12" rx="1.38" ry="1.23" transform="translate(99.06 477.08) rotate(-78.69)"/><path class="cls-5" d="M343.9,171.59a6.48,6.48,0,0,0-4.95.24"/><circle class="cls-6" cx="339.27" cy="183.74" r="1.4"/><ellipse class="cls-2" cx="354.76" cy="178.86" rx="1.46" ry="1.3" transform="translate(109.78 491.64) rotate(-78.69)"/><circle class="cls-6" cx="356.87" cy="184.25" r="1.48"/><path class="cls-2" d="M343.91,184.34s.26,1,2.31.71c1.82-.29,2.62.92,1.77,1.42a3.16,3.16,0,0,1-3.32-.21,4.28,4.28,0,0,1-1-1.37"/><path class="cls-2" d="M354.05,189a4.25,4.25,0,0,1-.61,1.18c-.36.14-.71.29-1.07.4a9.35,9.35,0,0,1-2.23.42,10.08,10.08,0,0,1-2.26-.1,10.26,10.26,0,0,1-1.1-.24,5.2,5.2,0,0,1-.8-1.05l1.19-.4c.31.09.63.15.95.21a8.22,8.22,0,0,0,1.92.08,8,8,0,0,0,1.88-.35,7.46,7.46,0,0,0,.89-.35C353.19,188.89,353.59,188.93,354.05,189Z"/><path class="cls-4" d="M374.59,183.08c.66,2-.95,6.76-8.26,5.59l0-.13a7.07,7.07,0,0,1,1.79-6.55C370.7,179.4,373.73,180.38,374.59,183.08Z"/><path class="cls-7" d="M366.33,188.67c7.31,1.17,8.92-3.55,8.26-5.59-1-3.22-5.14-4-7.94.81"/><path class="cls-2" d="M372,183.84a2.33,2.33,0,0,0-1.3,0c-.39.1-.79.3-1.35.45a1.65,1.65,0,0,1,.41-.73,1.68,1.68,0,0,1,.74-.44,1.36,1.36,0,0,1,.91,0A1,1,0,0,1,372,183.84Z"/><path class="cls-1" d="M413.15,330c.7-58-17.57-119.53-42-127.73-9.79,9.92-22,13.92-28.35,9.46-16,17-27.8,65.94-30.23,107.12A39.37,39.37,0,0,1,308.31,334c-.9,1.8-6.46,10.13-6.49,12.07-.16,13.93,14.94,18.91,44.24,19.26s66.79-10.48,67-24.41c0-.22,0-.43,0-.65-.06-1-.1-2-.06-3Q413.1,333.61,413.15,330Z"/><path class="cls-7" d="M319.07,271a329.09,329.09,0,0,0-6.48,47.79"/><path class="cls-2" d="M354.17,219.2c2.17-1.17,5.38-3.68,4.58-8.06-4.46,2-8.75,2.8-12.23,2.08l-.62.29a6.65,6.65,0,0,0,2.51,5.7,3.68,3.68,0,0,1,1.33,3.1c-.64,11.21-1.86,62.18,27.49,72.12l8.23,1.87a4.62,4.62,0,0,0,5.64-4.58l-.18-9.74a4.58,4.58,0,0,0-1.11-2.92c-5.72-6.66-32.46-38.49-37-56.68A2.79,2.79,0,0,1,354.17,219.2Z"/><path class="cls-8" d="M353.93,226a34.32,34.32,0,0,1-1.14-3.65,2.9,2.9,0,0,1,0-1.31l-3,1.37c-.07,1.35-.15,3.25-.19,5.57Z"/><path class="cls-8" d="M359,236.73q-1.26-2.25-2.34-4.43l-7.07,3.18c.05,1.7.13,3.5.25,5.37Z"/><path class="cls-8" d="M365.24,246.91q-1.41-2.13-2.74-4.25l-12,5.39c.2,1.7.43,3.43.71,5.17Z"/><path class="cls-8" d="M372.14,256.79q-1.5-2-3-4.14l-16.64,7.47q.57,2.47,1.27,4.92Z"/><path class="cls-8" d="M379.49,266.47c-1-1.3-2.08-2.66-3.16-4.07L356,271.55c.62,1.56,1.29,3.09,2,4.57Z"/><path class="cls-8" d="M387.2,276c-1-1.14-2.07-2.49-3.3-4l-22.43,10.08a38.37,38.37,0,0,0,3.2,4Z"/><path class="cls-8" d="M376,294l15-6.74-.1-5.27c0-.06,0-.11,0-.16L370.38,291A29,29,0,0,0,376,294Z"/><path class="cls-2" d="M397.92,237.06c-9.57,13.05-6.21,34.65,8.67,50.73a57.58,57.58,0,0,0,4.44,4.28C408.54,271.72,404,252.52,397.92,237.06Z"/><path class="cls-7" d="M312.59,318.81A39.37,39.37,0,0,1,308.31,334c-.9,1.8-6.46,10.13-6.49,12.07-.16,13.93,17.79,21.91,51.76,19.26"/><path class="cls-2" d="M413.17,328.31h0a117.62,117.62,0,0,0-12.23-5.09c-31.76-11.19-62.07-7.31-67.71,8.68-1.65,4.7-1,9.92,1.58,15.24,5.84,12.1,20.44,23.67,33.74,21.75,23.52-3.39,44.35-17.32,44.48-28,0-.22,0-.44,0-.65-.06-1-.1-2-.06-3.05C413.07,334.26,413.15,331.3,413.17,328.31Z"/><path class="cls-9" d="M340.28,344.34s-.18-47.42-5.13-56.75,12.22-11,22.9-6c6,2.78,21.21-2.73,20.61,7.86-.87,15.24,10.93,63.53-1,64.57-15,1.31-17.61,1.74-26.3.59C339.33,353,340.39,352.12,340.28,344.34Z"/><path class="cls-1" d="M361.67,282.35a31.15,31.15,0,0,0,15.56,12.08l1.5.34a47.16,47.16,0,0,1-.07-5.37C379.16,280.56,368.64,282.93,361.67,282.35Z"/><path class="cls-7" d="M358.05,281.54c6,2.78,21.21-2.73,20.61,7.86-.42,7.29,2.06,22.13,3.46,35.75"/><path class="cls-1" d="M367.34,205.72s8.31-13.93,30.85,2.15,138,131.33,35.56,139S332,345.87,332,334.92s-5.19-12.39,0-15.24,14.18-1.43,14.18-1.43-5-12.93,11.35-7.78c17.16,5.4,70.06-13.65,70.06-13.65s-50.72-45.52-59-57.63C355.83,220.61,367.34,205.72,367.34,205.72Z"/><path class="cls-4" d="M368.54,330.87a98,98,0,0,0-1.84-19.09,36.07,36.07,0,0,1-9.2-1.31c-10.07-3.17-12.05.51-12.07,3.8a3.63,3.63,0,0,1-3.7,3.63c-3-.06-4.66-2.62-7.48-1.07-5.2,2.85-2.32,7.13-2.28,18.09,0,7.67-.28,14.18,34.78,14.76A97.54,97.54,0,0,0,368.54,330.87Z"/><path class="cls-7" d="M366.75,349.68a97.54,97.54,0,0,0,1.79-18.81"/><path class="cls-7" d="M415.9,348.06c-60.9,3.83-77.59.65-82.18-5.28a8,8,0,0,1-1.53-3.67"/><path class="cls-7" d="M357.5,310.47c17.16,5.4,70.06-13.65,70.06-13.65"/><path class="cls-7" d="M339.46,317.4a5.44,5.44,0,0,0-6.12,0c-3.18,2.16-3.42,5.85,1.7,7.75"/><path class="cls-7" d="M331.15,324s-.81,4.12,1,5.94,2.74,1.67,2.74,1.67"/><path class="cls-7" d="M331.48,329.47s-.81,4.12,1,5.95,2.73,1.67,2.73,1.67"/><path class="cls-3" d="M376.25,376.35s5.59,11.91,20.83,19"/><line class="cls-5" x1="274.51" y1="672.04" x2="474.17" y2="672.04"/></svg>